<svg id="Layer_1" data-name="Layer 1" xmlns="http://www.w3.org/2000/svg" viewBox="0 0 1162.95 1268"><defs><style>.cls-1{opacity:0.9;}.cls-2{fill:#bec831;}.cls-3{fill:#a1a938;}.cls-4{fill:#999b37;}.cls-5{fill:#cc2a65;}.cls-6{fill:#a21d4c;}.cls-7{fill:#b62454;}.cls-8{fill:#c8d92b;}.cls-9{fill:#c2d02f;}.cls-10{fill:#b9be33;}.cls-11{fill:#33b4d7;}.cls-12{fill:#209ac5;}.cls-13{fill:#0f8cae;}.cls-14{fill:#94d6e3;}.cls-15{fill:#73ccdd;}.cls-16{fill:#3bafbb;}.cls-17{fill:#ee539a;}.cls-18{fill:#d01b68;}.cls-19{fill:#ec0f68;}.cls-20{fill:#a159a2;}.cls-21{fill:#772a86;}.cls-22{fill:#8e3b95;}.cls-23{fill:#f7af19;}.cls-24{fill:#f2901f;}.cls-25{fill:#f9a120;}.cls-26{fill:#f6dd03;}.cls-27{fill:#f9bb1d;}.cls-28{fill:#e9ae20;}.cls-29{fill:#31838b;}.cls-30{fill:#22626c;}.cls-31{fill:#1b4b56;}.cls-32{fill:#833593;}.cls-33{fill:#652977;}.cls-34{fill:#4d1f5b;}</style></defs><title>libp2p_basic_color_icon</title><g class="cls-1"><g class="cls-1"><polygon class="cls-2" points="581.45 649.67 581.46 649.67 581.46 649.67 582.63 649 720.9 569.44 581.44 488.29 581.44 488.29 581.44 488.29 581.44 488.29 581.43 488.29 441.96 568.49 581.43 649.66 581.45 649.67"/><polygon class="cls-3" points="581.43 811.04 581.43 811.04 581.44 811.04 581.44 649.68 581.44 649.68 441.95 568.5 441.95 568.5 441.94 568.5 441.94 729.86 442.01 729.9 581.43 811.04"/><polygon class="cls-4" points="720.93 569.46 582.63 649 581.45 649.67 581.44 649.68 581.44 811.04 581.46 811.06 581.47 811.06 581.47 811.06 720.94 730.86 720.94 730.86 720.94 730.84 720.94 569.47 720.93 569.47 720.93 569.46"/></g><g class="cls-1"><polygon class="cls-5" points="720.96 730.84 720.96 730.84 720.97 730.84 722.14 730.16 860.4 650.61 720.95 569.45 720.95 569.45 720.95 569.45 720.94 569.45 720.94 569.45 581.47 649.66 720.94 730.83 720.96 730.84"/><polygon class="cls-6" points="720.94 892.21 720.94 892.21 720.95 892.21 720.95 730.85 720.95 730.85 581.45 649.67 581.45 649.67 581.45 649.67 581.45 811.03 581.51 811.07 720.94 892.21"/><polygon class="cls-7" points="860.43 650.63 722.13 730.16 720.96 730.84 720.94 730.85 720.94 892.21 720.97 892.23 720.97 892.22 720.98 892.23 860.44 812.02 860.44 812.02 860.44 812 860.44 650.63 860.43 650.63 860.43 650.63"/></g><g class="cls-1"><polygon class="cls-5" points="860.45 812.03 860.46 812.02 860.46 812.03 861.64 811.35 999.9 731.8 860.44 650.64 860.44 650.64 860.44 650.64 860.44 650.64 860.43 650.64 720.96 730.85 860.43 812.02 860.45 812.03"/><polygon class="cls-6" points="860.43 973.4 860.43 973.4 860.44 973.4 860.44 812.04 860.44 812.04 720.95 730.86 720.95 730.86 720.95 730.86 720.95 892.22 721.01 892.26 860.43 973.4"/><polygon class="cls-7" points="999.93 731.82 861.63 811.35 860.45 812.03 860.44 812.04 860.44 973.4 860.47 973.41 860.47 973.41 860.47 973.42 999.94 893.21 999.94 893.22 999.94 893.2 999.94 731.82 999.93 731.83 999.93 731.82"/></g><g class="cls-1"><polygon class="cls-8" points="441.99 729.87 441.99 729.87 441.99 729.87 443.17 729.2 581.43 649.64 441.98 568.49 441.97 568.49 441.97 568.49 441.97 568.49 441.97 568.49 302.49 648.69 441.97 729.86 441.99 729.87"/><polygon class="cls-9" points="441.97 891.24 441.97 891.24 441.97 891.24 441.97 729.88 441.97 729.88 302.48 648.7 302.48 648.71 302.48 648.7 302.48 810.07 302.54 810.1 441.97 891.24"/><polygon class="cls-10" points="581.46 649.66 443.16 729.2 441.99 729.87 441.97 729.88 441.97 891.24 442 891.26 442 891.26 442 891.26 581.47 811.06 581.47 811.06 581.47 811.04 581.47 649.66 581.46 649.67 581.46 649.66"/></g><g class="cls-1"><polygon class="cls-5" points="581.49 811.04 581.49 811.03 581.5 811.04 582.67 810.36 720.94 730.81 581.48 649.65 581.48 649.65 581.48 649.65 581.48 649.65 581.47 649.65 442 729.86 581.47 811.03 581.49 811.04"/><polygon class="cls-6" points="581.47 972.41 581.47 972.41 581.48 972.41 581.48 811.05 581.48 811.05 441.99 729.87 441.99 729.87 441.98 729.87 441.98 891.23 442.05 891.27 581.47 972.41"/><polygon class="cls-7" points="720.97 730.83 582.67 810.36 581.49 811.04 581.48 811.05 581.48 972.41 581.5 972.42 581.5 972.42 581.51 972.43 720.97 892.22 720.98 892.23 720.98 892.21 720.98 730.83 720.97 730.84 720.97 730.83"/></g><g class="cls-1"><polygon class="cls-11" points="720.99 892.23 720.99 892.23 721 892.23 722.17 891.55 860.43 812 720.98 730.84 720.98 730.84 720.98 730.84 720.97 730.84 720.97 730.84 581.5 811.05 720.97 892.22 720.99 892.23"/><polygon class="cls-12" points="720.97 1053.6 720.97 1053.6 720.98 1053.6 720.98 892.24 720.98 892.24 581.48 811.06 581.48 811.06 581.48 811.06 581.48 972.42 581.54 972.46 720.97 1053.6"/><polygon class="cls-13" points="860.47 812.02 722.16 891.55 720.99 892.23 720.97 892.24 720.97 1053.6 721 1053.62 721 1053.61 721 1053.62 860.47 973.41 860.47 973.41 860.47 973.39 860.47 812.02 860.47 812.02 860.47 812.02"/></g><g class="cls-1"><polygon class="cls-14" points="302.52 810.08 302.52 810.08 302.53 810.08 303.7 809.4 441.96 729.85 302.51 648.69 302.51 648.69 302.51 648.69 302.5 648.69 302.5 648.69 163.03 728.9 302.5 810.07 302.52 810.08"/><polygon class="cls-15" points="302.5 971.45 302.5 971.45 302.51 971.45 302.51 810.09 302.51 810.09 163.01 728.91 163.01 728.91 163.01 728.91 163.01 890.27 163.07 890.31 302.5 971.45"/><polygon class="cls-16" points="442 729.87 303.7 809.4 302.52 810.08 302.5 810.09 302.5 971.45 302.53 971.46 302.53 971.46 302.54 971.47 442 891.26 442 891.26 442 891.25 442 729.87 442 729.88 442 729.87"/></g><g class="cls-1"><polygon class="cls-14" points="442.02 891.24 442.03 891.24 442.03 891.24 443.2 890.57 581.47 811.01 442.01 729.86 442.01 729.86 442.01 729.86 442.01 729.86 442 729.86 302.53 810.06 442 891.23 442.02 891.24"/><polygon class="cls-15" points="442 1052.61 442 1052.61 442.01 1052.62 442.01 891.25 442.01 891.25 302.52 810.08 302.52 810.08 302.51 810.07 302.51 971.44 302.58 971.47 442 1052.61"/><polygon class="cls-16" points="581.5 811.03 443.2 890.57 442.02 891.24 442.01 891.25 442.01 1052.61 442.04 1052.63 442.04 1052.63 442.04 1052.63 581.51 972.43 581.51 972.43 581.51 972.41 581.51 811.04 581.5 811.04 581.5 811.03"/></g><g class="cls-1"><polygon class="cls-11" points="581.52 972.43 581.52 972.43 581.53 972.43 582.7 971.76 720.97 892.2 581.51 811.05 581.51 811.05 581.51 811.05 581.5 811.05 581.5 811.05 442.03 891.25 581.5 972.42 581.52 972.43"/><polygon class="cls-12" points="581.5 1133.8 581.5 1133.8 581.51 1133.81 581.51 972.44 581.51 972.44 442.01 891.26 442.01 891.27 442.01 891.26 442.01 1052.63 442.08 1052.66 581.5 1133.8"/><polygon class="cls-13" points="721 892.23 582.7 971.76 581.52 972.43 581.5 972.44 581.5 1133.8 581.53 1133.82 581.53 1133.82 581.54 1133.82 721 1053.62 721 1053.62 721 1053.6 721 892.23 721 892.23 721 892.23"/></g></g><g class="cls-1"><polygon class="cls-2" points="581.52 472.62 581.52 472.62 581.53 472.62 582.7 471.94 721 392.44 581.57 311.23 581.57 311.23 581.57 311.23 581.57 311.23 581.57 311.23 442.06 391.38 581.5 472.61 581.52 472.62"/><polygon class="cls-3" points="581.43 633.99 581.43 633.99 581.44 633.99 581.51 472.63 581.51 472.63 442.05 391.39 442.05 391.39 442.04 391.39 441.98 552.75 442.04 552.79 581.43 633.99"/><polygon class="cls-4" points="721.03 392.47 582.7 471.94 581.52 472.62 581.5 472.63 581.44 633.99 581.46 634 581.47 634 581.47 634.01 720.97 553.86 720.97 553.86 720.97 553.84 721.03 392.47 721.03 392.47 721.03 392.47"/></g><g class="cls-1"><polygon class="cls-17" points="720.99 553.84 720.99 553.84 721 553.84 722.17 553.17 860.47 473.67 721.04 392.45 721.04 392.46 721.04 392.46 721.04 392.45 721.04 392.45 581.53 472.6 720.97 553.83 720.99 553.84"/><polygon class="cls-18" points="720.91 715.21 720.91 715.21 720.91 715.21 720.98 553.85 720.98 553.85 581.52 472.62 581.52 472.62 581.51 472.61 581.45 633.98 581.51 634.01 720.91 715.21"/><polygon class="cls-19" points="860.5 473.69 722.17 553.16 720.99 553.84 720.97 553.85 720.91 715.21 720.94 715.23 720.94 715.23 720.94 715.23 860.44 635.08 860.44 635.09 860.44 635.07 860.51 473.69 860.5 473.69 860.5 473.69"/></g><g class="cls-1"><polygon class="cls-20" points="860.45 635.09 860.46 635.09 860.46 635.09 861.64 634.41 999.93 554.91 860.51 473.7 860.51 473.7 860.51 473.7 860.5 473.7 860.5 473.7 721 553.85 860.43 635.08 860.45 635.09"/><polygon class="cls-21" points="860.37 796.46 860.37 796.46 860.38 796.46 860.44 635.1 860.44 635.1 720.98 553.86 720.98 553.86 720.98 553.86 720.91 715.22 720.98 715.26 860.37 796.46"/><polygon class="cls-22" points="999.96 554.94 861.63 634.41 860.45 635.09 860.44 635.1 860.37 796.46 860.4 796.48 860.4 796.47 860.4 796.48 999.9 716.33 999.9 716.33 999.9 716.31 999.97 554.94 999.96 554.94 999.96 554.94"/></g><g class="cls-1"><polygon class="cls-8" points="442.02 552.76 442.02 552.76 442.03 552.76 443.2 552.09 581.5 472.59 442.07 391.38 442.07 391.38 442.07 391.38 442.07 391.38 442.07 391.38 302.56 471.52 442 552.75 442.02 552.76"/><polygon class="cls-9" points="441.94 714.13 441.94 714.13 441.94 714.13 442.01 552.77 442.01 552.77 302.55 471.54 302.55 471.54 302.54 471.54 302.48 632.9 302.54 632.94 441.94 714.13"/><polygon class="cls-10" points="581.53 472.61 443.2 552.09 442.02 552.76 442 552.77 441.94 714.13 441.97 714.15 441.97 714.15 441.97 714.15 581.47 634 581.47 634.01 581.47 633.99 581.54 472.61 581.53 472.62 581.53 472.61"/></g><g class="cls-1"><polygon class="cls-23" points="581.49 633.98 581.49 633.98 581.5 633.99 582.67 633.31 720.97 553.81 581.55 472.6 581.54 472.6 581.54 472.6 581.54 472.6 581.54 472.6 442.03 552.75 581.47 633.97 581.49 633.98"/><polygon class="cls-24" points="581.41 795.36 581.41 795.35 581.41 795.36 581.48 634 581.48 633.99 442.02 552.76 442.02 552.76 442.01 552.76 441.95 714.12 442.01 714.16 581.41 795.36"/><polygon class="cls-25" points="721 553.83 582.67 633.31 581.49 633.98 581.48 633.99 581.41 795.36 581.44 795.37 581.44 795.37 581.44 795.37 720.94 715.23 720.94 715.23 720.94 715.21 721.01 553.84 721 553.84 721 553.83"/></g><g class="cls-1"><polygon class="cls-20" points="720.96 715.23 720.96 715.23 720.96 715.23 722.14 714.56 860.43 635.06 721.01 553.85 721.01 553.85 721.01 553.85 721 553.85 721 553.85 581.5 634 720.94 715.22 720.96 715.23"/><polygon class="cls-21" points="720.87 876.6 720.87 876.6 720.88 876.6 720.94 715.24 720.94 715.24 581.48 634.01 581.48 634.01 581.48 634 581.41 795.37 581.48 795.41 720.87 876.6"/><polygon class="cls-22" points="860.46 635.08 722.13 714.55 720.96 715.23 720.94 715.24 720.87 876.6 720.9 876.62 720.9 876.62 720.91 876.62 860.4 796.47 860.41 796.48 860.41 796.46 860.47 635.08 860.46 635.09 860.46 635.08"/></g><g class="cls-1"><polygon class="cls-26" points="302.52 632.91 302.52 632.91 302.53 632.91 303.7 632.24 442 552.74 302.57 471.52 302.57 471.52 302.57 471.53 302.57 471.52 302.57 471.52 163.06 551.67 302.5 632.9 302.52 632.91"/><polygon class="cls-27" points="302.44 794.28 302.44 794.28 302.44 794.28 302.51 632.92 302.51 632.92 163.05 551.69 163.05 551.69 163.04 551.68 162.98 713.05 163.04 713.09 302.44 794.28"/><polygon class="cls-28" points="442.03 552.76 303.7 632.24 302.52 632.91 302.5 632.92 302.44 794.28 302.46 794.3 302.47 794.3 302.47 794.3 441.97 714.15 441.97 714.15 441.97 714.13 442.04 552.76 442.03 552.76 442.03 552.76"/></g><g class="cls-1"><polygon class="cls-23" points="441.99 714.13 441.99 714.13 442 714.13 443.17 713.46 581.47 633.96 442.05 552.75 442.05 552.75 442.04 552.75 442.04 552.75 442.04 552.75 302.53 632.9 441.97 714.12 441.99 714.13"/><polygon class="cls-24" points="441.91 875.5 441.91 875.5 441.91 875.5 441.98 714.14 441.98 714.14 302.52 632.91 302.52 632.91 302.51 632.91 302.45 794.27 302.51 794.31 441.91 875.5"/><polygon class="cls-25" points="581.5 633.98 443.17 713.46 441.99 714.13 441.98 714.14 441.91 875.5 441.94 875.52 441.94 875.52 441.94 875.52 581.44 795.38 581.44 795.38 581.44 795.36 581.51 633.98 581.5 633.99 581.5 633.98"/></g><g class="cls-1"><polygon class="cls-29" points="581.46 795.38 581.46 795.38 581.46 795.38 582.64 794.71 720.93 715.21 581.51 633.99 581.51 634 581.51 634 581.5 633.99 581.5 633.99 442 714.14 581.44 795.37 581.46 795.38"/><polygon class="cls-30" points="581.37 956.75 581.37 956.75 581.38 956.75 581.44 795.39 581.44 795.39 441.98 714.15 441.98 714.16 441.98 714.15 441.91 875.52 441.98 875.55 581.37 956.75"/><polygon class="cls-31" points="720.96 715.23 582.63 794.7 581.46 795.38 581.44 795.39 581.37 956.75 581.4 956.77 581.4 956.77 581.41 956.77 720.9 876.62 720.91 876.62 720.91 876.6 720.97 715.23 720.96 715.23 720.96 715.23"/></g><g class="cls-1"><polygon class="cls-2" points="581.45 295.56 581.46 295.56 581.46 295.57 582.63 294.89 720.9 215.34 581.44 134.18 581.44 134.18 581.44 134.18 581.44 134.18 581.43 134.18 441.96 214.38 581.43 295.55 581.45 295.56"/><polygon class="cls-3" points="581.43 456.94 581.43 456.93 581.44 456.94 581.44 295.58 581.44 295.57 441.95 214.4 441.95 214.4 441.94 214.4 441.94 375.76 442.01 375.8 581.43 456.94"/><polygon class="cls-4" points="720.93 215.36 582.63 294.89 581.45 295.56 581.44 295.57 581.44 456.94 581.46 456.95 581.47 456.95 581.47 456.95 720.94 376.75 720.94 376.75 720.94 376.73 720.94 215.36 720.93 215.36 720.93 215.36"/></g><g class="cls-1"><polygon class="cls-17" points="720.96 376.73 720.96 376.73 720.97 376.73 722.14 376.06 860.4 296.5 720.95 215.34 720.95 215.35 720.95 215.35 720.94 215.34 720.94 215.34 581.47 295.55 720.94 376.72 720.96 376.73"/><polygon class="cls-18" points="720.94 538.1 720.94 538.1 720.95 538.1 720.95 376.74 720.95 376.74 581.45 295.56 581.45 295.56 581.45 295.56 581.45 456.92 581.51 456.96 720.94 538.1"/><polygon class="cls-19" points="860.43 296.52 722.13 376.06 720.96 376.73 720.94 376.74 720.94 538.1 720.97 538.12 720.97 538.12 720.98 538.12 860.44 457.92 860.44 457.92 860.44 457.9 860.44 296.52 860.43 296.53 860.43 296.52"/></g><g class="cls-1"><polygon class="cls-20" points="860.45 457.92 860.46 457.92 860.46 457.92 861.64 457.25 999.9 377.69 860.44 296.53 860.44 296.54 860.44 296.54 860.44 296.53 860.43 296.53 720.96 376.74 860.43 457.91 860.45 457.92"/><polygon class="cls-21" points="860.43 619.29 860.43 619.29 860.44 619.29 860.44 457.93 860.44 457.93 720.95 376.75 720.95 376.75 720.95 376.75 720.95 538.11 721.01 538.15 860.43 619.29"/><polygon class="cls-22" points="999.93 377.71 861.63 457.25 860.45 457.92 860.44 457.93 860.44 619.29 860.47 619.31 860.47 619.31 860.47 619.31 999.94 539.11 999.94 539.11 999.94 539.09 999.94 377.71 999.93 377.72 999.93 377.71"/></g><g class="cls-1"><polygon class="cls-8" points="441.99 375.76 441.99 375.76 441.99 375.77 443.17 375.09 581.43 295.54 441.98 214.38 441.97 214.38 441.97 214.38 441.97 214.38 441.97 214.38 302.49 294.58 441.97 375.75 441.99 375.76"/><polygon class="cls-9" points="441.97 537.14 441.97 537.13 441.97 537.14 441.97 375.78 441.97 375.77 302.48 294.6 302.48 294.6 302.48 294.6 302.48 455.96 302.54 456 441.97 537.14"/><polygon class="cls-10" points="581.46 295.56 443.16 375.09 441.99 375.76 441.97 375.77 441.97 537.14 442 537.15 442 537.15 442 537.15 581.47 456.95 581.47 456.95 581.47 456.93 581.47 295.56 581.46 295.56 581.46 295.56"/></g><g class="cls-1"><polygon class="cls-8" points="581.49 456.93 581.49 456.93 581.5 456.93 582.67 456.26 720.94 376.7 581.48 295.55 581.48 295.55 581.48 295.55 581.48 295.55 581.47 295.55 442 375.75 581.47 456.92 581.49 456.93"/><polygon class="cls-9" points="581.47 618.3 581.47 618.3 581.48 618.3 581.48 456.94 581.48 456.94 441.99 375.76 441.99 375.76 441.98 375.76 441.98 537.12 442.05 537.16 581.47 618.3"/><polygon class="cls-10" points="720.97 376.72 582.67 456.25 581.49 456.93 581.48 456.94 581.48 618.3 581.5 618.32 581.5 618.32 581.51 618.32 720.97 538.12 720.98 538.12 720.98 538.1 720.98 376.73 720.97 376.73 720.97 376.72"/></g><g class="cls-1"><polygon class="cls-32" points="720.99 538.12 720.99 538.12 721 538.12 722.17 537.44 860.04 457.22 720.2 376.74 720.19 376.74 720.19 376.74 720.19 376.74 720.19 376.74 581.1 457.62 720.97 538.11 720.99 538.12"/><polygon class="cls-33" points="721.75 699.49 721.75 699.49 721.76 699.49 720.98 538.13 720.98 538.13 581.09 457.63 581.09 457.63 581.09 457.63 581.87 618.99 581.93 619.03 721.75 699.49"/><polygon class="cls-34" points="860.07 457.24 722.16 537.44 720.99 538.12 720.97 538.13 721.75 699.49 721.78 699.51 721.78 699.51 721.79 699.51 860.86 618.63 860.86 618.63 860.86 618.61 860.08 457.24 860.07 457.24 860.07 457.24"/></g><g class="cls-1"><polygon class="cls-26" points="302.52 455.97 302.52 455.97 302.53 455.97 303.7 455.3 441.96 375.74 302.51 294.58 302.51 294.59 302.51 294.59 302.5 294.58 302.5 294.58 163.03 374.79 302.5 455.96 302.52 455.97"/><polygon class="cls-27" points="302.5 617.34 302.5 617.34 302.51 617.34 302.51 455.98 302.51 455.98 163.01 374.8 163.01 374.8 163.01 374.8 163.01 536.16 163.07 536.2 302.5 617.34"/><polygon class="cls-28" points="442 375.76 303.7 455.3 302.52 455.97 302.5 455.98 302.5 617.34 302.53 617.36 302.53 617.36 302.54 617.36 442 537.16 442 537.16 442 537.14 442 375.76 442 375.77 442 375.76"/></g><g class="cls-1"><polygon class="cls-23" points="442.02 537.14 442.03 537.13 442.03 537.14 443.2 536.46 581.47 456.91 442.01 375.75 442.01 375.75 442.01 375.75 442.01 375.75 442 375.75 302.53 455.96 442 537.13 442.02 537.14"/><polygon class="cls-24" points="442 698.51 442 698.5 442.01 698.51 442.01 537.15 442.01 537.15 302.52 455.97 302.52 455.97 302.51 455.97 302.51 617.33 302.58 617.37 442 698.51"/><polygon class="cls-25" points="581.5 456.93 443.2 536.46 442.02 537.14 442.01 537.15 442.01 698.51 442.04 698.52 442.04 698.52 442.04 698.52 581.51 618.32 581.51 618.32 581.51 618.3 581.51 456.93 581.5 456.93 581.5 456.93"/></g><g class="cls-1"><polygon class="cls-23" points="581.52 618.33 581.52 618.32 581.53 618.33 582.7 617.65 720.97 538.1 581.51 456.94 581.51 456.94 581.51 456.94 581.5 456.94 581.5 456.94 442.03 537.15 581.5 618.32 581.52 618.33"/><polygon class="cls-24" points="581.5 779.7 581.5 779.7 581.51 779.7 581.51 618.34 581.51 618.34 442.01 537.16 442.01 537.16 442.01 537.16 442.01 698.52 442.08 698.56 581.5 779.7"/><polygon class="cls-25" points="721 538.12 582.7 617.65 581.52 618.33 581.5 618.34 581.5 779.7 581.53 779.71 581.53 779.71 581.54 779.72 721 699.51 721 699.51 721 699.49 721 538.12 721 538.12 721 538.12"/></g></svg>